<?xml version="1.0" standalone="no"?>
<!DOCTYPE svg PUBLIC "-//W3C//DTD SVG 20010904//EN"
 "http://www.w3.org/TR/2001/REC-SVG-20010904/DTD/svg10.dtd">
<svg version="1.0" xmlns="http://www.w3.org/2000/svg"
 width="900.000000pt" height="900.000000pt" viewBox="0 0 900.000000 900.000000"
 preserveAspectRatio="xMidYMid meet">

<g transform="translate(0.000000,900.000000) scale(0.100000,-0.100000)"
fill="#000000" stroke="none">
<path d="M4135 8859 c-66 -23 -213 -41 -317 -39 -43 1 -77 -4 -97 -15 -51 -26
-35 -35 24 -14 59 21 105 25 105 9 0 -11 -24 -17 -94 -23 -27 -3 -60 -14 -77
-26 -16 -12 -41 -26 -55 -32 -25 -9 -26 -8 -13 7 8 10 28 25 44 36 17 10 26
18 21 18 -23 0 -75 -45 -114 -99 -24 -33 -54 -62 -67 -65 -27 -7 -155 -142
-155 -164 0 -15 -70 -99 -70 -85 0 5 -7 -1 -15 -11 -8 -11 -15 -27 -15 -35 1
-9 7 -2 15 14 7 17 14 25 14 18 1 -7 8 -10 16 -7 8 4 15 1 15 -5 0 -6 -5 -11
-11 -11 -5 0 -7 -5 -3 -12 4 -6 3 -8 -3 -5 -25 16 -113 -113 -113 -166 0 -13
-7 -38 -16 -55 -8 -18 -17 -58 -20 -89 l-4 -58 29 60 c16 33 30 67 30 75 1 19
40 78 95 144 23 28 41 54 41 60 0 5 18 23 40 38 22 16 49 35 60 43 66 46 325
116 325 87 0 -6 31 -8 70 -7 38 2 72 -1 75 -6 4 -5 22 -9 41 -9 19 0 43 -4 54
-10 11 -5 28 -14 38 -19 10 -5 43 -14 75 -21 31 -7 54 -16 52 -21 -7 -10 117
-23 144 -14 28 9 27 -3 -1 -15 -19 -9 -17 -9 12 -5 129 20 135 20 160 -15 29
-40 89 -68 158 -72 40 -2 52 -6 49 -18 -2 -8 -10 -14 -17 -12 -11 3 -11 -1 2
-15 9 -10 21 -45 27 -77 14 -75 14 -79 -1 -70 -10 6 -10 4 0 -7 6 -7 12 -25
12 -39 0 -15 18 -52 42 -86 38 -53 40 -57 15 -41 -15 9 -27 14 -27 10 0 -4 -7
2 -15 13 -14 18 -14 18 -9 -3 3 -12 15 -31 25 -42 11 -12 17 -21 14 -21 -3 0
9 -14 27 -31 23 -22 26 -26 8 -15 -31 20 -41 20 -33 -1 5 -13 3 -15 -13 -9
-15 6 -17 5 -6 -5 6 -7 12 -20 12 -28 0 -9 -18 2 -45 29 -38 37 -45 41 -42 23
2 -12 11 -31 22 -43 10 -11 14 -20 10 -20 -5 0 1 -10 13 -23 12 -13 20 -26 17
-29 -3 -3 8 -17 25 -32 17 -14 27 -26 21 -26 -5 0 -39 29 -76 65 l-66 65 27
-47 c14 -27 31 -54 36 -60 6 -7 7 -13 2 -13 -4 0 -1 -6 8 -12 9 -7 23 -25 32
-39 14 -22 14 -26 2 -26 -8 0 -14 4 -13 7 1 4 -10 19 -25 33 -26 25 -27 25
-25 4 1 -11 10 -29 20 -39 9 -10 17 -24 17 -30 0 -9 -4 -8 -10 2 -20 31 -11
-16 14 -72 46 -104 54 -210 18 -250 -12 -14 -13 -34 -8 -100 5 -58 4 -78 -3
-68 -6 8 -11 39 -11 69 0 30 -3 51 -7 48 -3 -4 -6 -53 -6 -109 0 -73 -2 -91
-7 -63 -4 22 -8 36 -10 30 -1 -5 -6 4 -10 20 -7 28 -8 27 -10 -15 -1 -25 -8
-61 -15 -80 l-13 -35 -1 33 c-1 22 -5 32 -13 29 -7 -2 -12 -11 -12 -20 1 -9
-3 -15 -9 -14 -5 1 -14 -12 -19 -30 -4 -18 -13 -35 -18 -38 -6 -3 -10 -23 -11
-43 0 -30 -2 -33 -9 -17 -7 16 -9 13 -9 -17 -1 -47 -19 -59 -23 -16 -4 28 -5
25 -13 -22 -7 -46 -10 -51 -16 -30 l-7 25 -2 -25 c-1 -23 -2 -23 -9 -5 -6 15
-11 2 -22 -50 -13 -67 -14 -69 -21 -35 -4 23 -6 10 -3 -36 3 -59 -1 -82 -20
-130 -25 -61 -34 -114 -15 -84 6 8 17 39 26 68 15 52 34 70 34 32 0 -11 -4
-20 -10 -20 -5 0 -10 -4 -10 -9 0 -5 -18 -49 -41 -97 -30 -67 -42 -85 -49 -74
-8 12 -10 10 -10 -8 0 -22 -18 -26 -33 -7 -4 6 -5 -3 -1 -20 4 -23 3 -26 -5
-15 -8 11 -11 12 -11 2 0 -7 -4 -11 -9 -7 -6 3 -13 -10 -17 -30 -8 -46 -25
-56 -17 -10 5 30 3 34 -11 29 -9 -4 -23 -19 -32 -35 -17 -34 -28 -38 -19 -8 5
15 4 19 -4 15 -6 -4 -11 -15 -12 -24 0 -9 -11 -48 -25 -87 -28 -82 -25 -41 5
59 11 38 19 72 16 74 -2 2 -13 -28 -25 -67 -12 -39 -27 -74 -32 -78 -10 -6 -8
15 9 72 9 31 -10 8 -24 -28 l-11 -32 -2 35 -2 35 -10 -35 c-9 -31 -11 -33 -19
-15 -5 14 -8 15 -9 5 -1 -8 -6 -4 -10 10 -7 20 -8 16 -10 -25 -2 -44 -3 -47
-10 -20 -7 28 -8 29 -10 5 -2 -23 -3 -22 -18 11 -9 21 -25 42 -35 48 -17 11
-17 10 -4 -16 20 -39 29 -83 18 -83 -5 0 -15 16 -21 36 -7 19 -14 33 -16 31
-3 -2 0 -16 6 -31 15 -39 1 -54 -22 -25 -14 16 -18 18 -14 7 3 -10 0 -18 -7
-19 -56 -5 -144 15 -159 36 -4 5 -8 21 -8 34 0 19 -3 21 -14 12 -11 -9 -15 -9
-19 1 -3 8 -9 4 -15 -12 -8 -18 -11 -20 -11 -7 -1 10 -9 17 -20 17 -21 0 -61
44 -61 66 0 7 -15 42 -34 76 -49 91 -74 188 -73 277 3 111 18 106 67 -20 27
-72 49 -92 130 -120 50 -18 83 -23 144 -21 100 3 143 22 235 107 37 34 93 81
124 103 30 23 58 46 62 52 14 23 22 7 18 -34 -3 -26 -1 -46 6 -50 6 -4 11 -15
11 -24 1 -9 7 -30 15 -47 l13 -30 -1 30 c-1 17 -7 41 -14 55 -17 33 -17 39 9
117 16 48 19 68 10 71 -7 2 -12 12 -12 23 0 10 -4 19 -8 19 -4 0 -37 27 -72
60 -83 78 -122 100 -49 28 61 -61 86 -107 71 -133 -8 -16 -9 -16 -15 -1 -4 10
-3 15 3 11 22 -14 8 14 -14 28 -22 15 -25 15 -30 0 -5 -13 -17 -15 -68 -9 -33
3 -75 15 -93 26 -35 22 -60 26 -49 9 11 -19 -39 1 -58 22 -29 33 -178 15 -178
-22 0 -20 43 -57 77 -65 31 -8 29 -22 -4 -31 -20 -6 -1 -9 67 -13 98 -5 180 5
192 23 4 7 11 7 21 -1 7 -7 17 -9 21 -5 4 4 19 7 34 8 15 0 27 6 27 13 0 21
19 16 32 -9 16 -32 6 -39 -58 -44 -30 -3 -78 -9 -108 -15 -29 -5 -81 -10 -115
-11 -42 -1 -53 -3 -36 -8 23 -7 21 -8 -15 -14 -22 -4 -41 -3 -43 1 -1 4 -18 6
-37 4 -19 -2 -47 1 -62 6 -16 6 -53 20 -83 31 -34 13 -66 19 -82 15 -31 -6
-33 -2 -17 28 9 16 17 19 46 13 20 -3 48 -13 62 -22 l26 -15 -23 19 -24 19 21
35 c28 45 27 49 -11 49 -32 0 -103 46 -134 87 -26 35 -14 3 16 -39 l29 -43
-49 -48 c-28 -26 -50 -51 -50 -56 0 -5 -7 -14 -15 -21 -13 -10 -17 -7 -31 25
-22 54 -20 122 6 178 30 68 20 81 -12 15 -18 -36 -29 -78 -32 -125 -5 -61 -3
-78 19 -127 24 -54 33 -116 17 -116 -8 0 -62 86 -62 99 0 5 -13 35 -30 66 -16
31 -30 64 -30 74 0 9 -23 54 -50 101 -44 75 -50 92 -50 142 0 76 19 205 36
246 7 18 9 30 4 27 -23 -14 -52 -148 -54 -240 -1 -92 0 -94 43 -177 24 -45 51
-110 61 -143 23 -80 63 -161 111 -225 38 -51 116 -200 122 -235 6 -31 88 -186
116 -219 19 -21 163 -117 204 -134 15 -7 37 -12 47 -12 11 0 34 -8 52 -18 40
-22 138 -20 151 4 19 33 159 84 233 84 51 0 132 31 165 63 19 18 34 36 34 41
0 5 10 11 23 12 31 5 27 -10 -10 -41 -18 -15 -26 -23 -18 -19 8 4 47 34 86 66
82 68 137 131 124 144 -14 14 12 57 35 60 18 3 18 1 -4 -15 -14 -11 -20 -21
-13 -25 11 -7 60 50 86 101 26 51 19 50 -16 -2 -18 -26 -34 -43 -36 -36 -2 7
7 29 20 49 14 20 33 53 42 72 l17 35 -34 -40 c-19 -22 -33 -43 -31 -46 2 -3
-8 -17 -23 -30 -25 -24 -26 -24 -14 -1 6 12 16 22 20 22 5 0 7 9 4 20 -3 12 0
20 6 20 7 0 10 4 7 8 -7 11 23 54 33 48 9 -6 43 50 47 78 2 12 6 35 9 51 4 21
-2 13 -20 -25 l-26 -55 6 40 c14 104 15 125 5 125 -5 0 -10 -6 -10 -13 0 -30
-32 -117 -41 -112 -5 4 -5 14 2 27 6 12 18 49 25 82 8 34 21 86 29 116 9 31
11 56 6 58 -5 2 0 30 11 63 11 32 24 57 29 53 5 -3 9 3 9 13 0 15 2 16 10 3 7
-11 10 1 11 40 0 42 3 50 10 35 7 -15 8 -13 3 10 -4 17 -8 55 -9 85 -2 30 -6
63 -10 74 -5 10 -3 26 3 36 8 13 7 23 -4 39 -16 23 -6 29 15 9 25 -24 1 35
-26 64 l-25 26 26 45 c38 64 46 68 97 59 48 -9 99 2 99 22 0 6 14 20 32 30 31
19 31 19 50 -4 12 -15 17 -32 13 -44 -11 -39 -17 -142 -7 -127 8 11 11 11 17
0 14 -22 24 20 24 106 1 88 -3 99 -37 108 -29 7 -107 -25 -115 -47 -6 -16 -37
-23 -37 -8 1 18 59 89 89 109 34 23 34 23 64 4 17 -10 37 -32 46 -47 9 -16 19
-30 24 -32 12 -6 8 -58 -12 -160 -11 -54 -24 -128 -31 -167 -26 -156 -91 -232
-219 -256 l-46 -8 53 3 c36 2 50 0 43 -7 -7 -7 -5 -19 5 -38 8 -17 10 -29 4
-29 -5 0 -12 11 -16 25 -3 14 -11 22 -16 19 -13 -8 -2 -53 21 -84 14 -20 17
-36 12 -75 -4 -28 -4 -90 0 -138 8 -110 40 -177 113 -244 58 -53 174 -108 210
-98 17 5 18 4 6 -4 -12 -9 -10 -11 11 -11 27 0 59 -27 59 -49 0 -7 5 -9 10 -6
13 8 4 -61 -17 -130 -16 -55 -48 -116 -144 -280 -36 -60 -100 -181 -143 -267
-74 -147 -96 -180 -96 -143 0 28 -48 110 -93 160 -58 65 -138 112 -240 143
-112 34 -296 37 -373 6 -72 -29 -139 -78 -182 -132 -20 -26 -41 -50 -45 -52
-5 -3 -25 36 -45 85 -41 98 -96 200 -115 212 -9 5 -9 3 -1 -8 6 -8 42 -81 79
-163 66 -147 67 -150 54 -190 l-13 -41 -6 30 c-5 25 -7 27 -13 12 -4 -10 -7
-39 -7 -63 0 -25 -11 -93 -25 -152 -13 -59 -27 -125 -31 -147 l-7 -40 -12 65
c-7 36 -20 101 -29 145 -10 44 -21 125 -25 180 l-8 100 -2 -105 c-1 -122 18
-256 54 -367 19 -61 25 -99 25 -177 l0 -100 -35 50 c-54 76 -226 215 -348 281
-51 29 -96 90 -143 200 -14 32 -22 45 -19 28 4 -16 23 -64 44 -105 l38 -76
-108 44 c-314 126 -703 142 -908 37 -58 -29 -137 -98 -157 -138 l-16 -30 -49
89 c-27 49 -58 118 -70 154 -12 36 -37 100 -55 143 -19 42 -35 87 -38 100 -2
12 -13 49 -24 82 -25 75 -29 114 -14 141 10 20 73 51 173 88 25 9 54 23 65 32
13 10 6 9 -21 -4 -22 -10 -71 -27 -109 -36 -168 -41 -175 -64 -92 -311 63
-188 111 -308 172 -425 38 -75 43 -90 35 -120 -5 -19 -15 -63 -22 -96 l-13
-62 -75 -17 c-236 -52 -430 -59 -762 -26 -260 26 -445 36 -452 24 -4 -6 42
-13 116 -17 67 -3 174 -14 237 -24 161 -24 648 -23 799 1 143 23 141 24 141
-17 0 -58 63 -167 136 -235 66 -62 109 -89 186 -116 61 -21 74 -20 205 24 110
37 305 72 319 58 4 -3 26 -57 50 -119 24 -62 43 -108 44 -102 0 6 -13 57 -29
115 -16 57 -28 106 -25 108 2 2 21 -1 43 -7 21 -7 50 -12 65 -12 38 0 181 -75
214 -112 15 -17 40 -45 55 -62 47 -51 79 -125 85 -191 5 -70 -9 -107 -57 -148
-32 -26 -137 -54 -226 -59 l-50 -3 -16 100 c-17 100 -17 100 -12 25 10 -141
24 -124 -107 -134 -80 -6 -115 -5 -118 2 -2 6 -29 52 -61 102 -60 97 -146 180
-225 219 -119 59 -229 101 -298 115 -155 32 -258 17 -403 -57 -235 -120 -358
-321 -359 -587 0 -200 63 -335 204 -431 27 -19 50 -38 50 -42 0 -5 -53 -5
-117 0 -239 16 -321 3 -367 -60 -48 -66 -9 -246 97 -452 81 -157 191 -256 322
-291 103 -28 417 -13 580 26 92 23 322 135 372 183 18 17 34 29 36 26 1 -2 10
-20 19 -40 l16 -37 -81 -36 c-60 -26 -104 -56 -163 -109 -98 -88 -168 -165
-193 -215 -115 -226 -97 -503 46 -720 57 -86 164 -197 251 -259 34 -25 62 -47
62 -49 0 -3 -10 -18 -22 -35 -28 -38 -30 -120 -5 -195 22 -63 176 -341 228
-411 48 -65 97 -102 160 -123 34 -12 56 -27 71 -50 39 -57 87 -75 213 -78 303
-10 614 79 813 231 35 27 65 47 67 45 1 -1 29 -59 62 -128 47 -100 69 -133
106 -166 42 -37 101 -64 139 -64 8 0 31 -24 52 -54 22 -32 47 -57 62 -60 40
-10 324 -7 409 4 270 37 502 149 683 331 106 106 183 216 263 373 l66 130 84
12 c348 51 635 264 728 541 41 122 44 183 22 405 -26 246 -43 330 -87 427 -19
41 -32 76 -30 78 2 3 70 24 151 48 80 24 169 54 197 68 l52 26 77 -73 c136
-128 168 -144 55 -28 l-109 112 47 50 c89 95 136 241 151 465 8 130 -9 405
-31 489 -8 32 -12 62 -7 66 4 3 40 29 78 56 39 26 98 72 133 102 34 29 62 50
62 47 0 -12 167 124 179 147 13 23 13 30 -5 69 -10 24 -33 60 -50 79 -22 25
-39 63 -59 130 -77 272 -232 580 -427 853 -93 130 -255 332 -294 367 -15 14 4
-13 43 -60 77 -94 203 -266 275 -376 180 -276 354 -652 380 -822 12 -81 38
-131 90 -172 l38 -31 -37 -45 c-21 -25 -54 -55 -73 -66 -19 -12 -62 -43 -95
-69 -33 -25 -100 -68 -150 -94 -49 -27 -98 -55 -108 -64 -17 -15 -21 -13 -58
26 -21 23 -39 48 -39 55 0 7 59 49 130 93 72 43 142 90 157 103 l28 24 -30
-20 c-16 -11 -86 -49 -154 -85 -121 -65 -123 -66 -117 -39 35 149 -6 550 -78
759 -108 316 -354 515 -667 540 -107 8 -265 -18 -385 -64 -22 -8 -17 26 21
144 45 137 111 247 195 326 70 66 64 68 -12 5 -88 -73 -180 -231 -237 -408
l-31 -95 -62 -32 c-162 -84 -329 -244 -419 -401 -77 -135 -159 -430 -159 -573
0 -36 -2 -39 -29 -39 -16 0 -42 3 -59 6 l-30 6 5 82 c7 99 -6 143 -53 196 -51
56 -122 83 -219 84 -44 0 -97 -6 -118 -13 -21 -7 -41 -10 -44 -7 -4 3 12 82
35 174 68 272 73 346 41 642 l-12 105 50 100 c28 55 62 133 76 172 31 85 59
142 98 199 78 114 154 304 166 414 5 50 3 59 -22 88 l-27 32 29 1 c44 2 -41
18 -100 18 -55 1 -103 28 -180 99 -60 57 -83 101 -96 183 -12 69 -6 109 15
109 44 0 95 130 100 255 1 44 0 67 -3 50 -6 -40 -23 -57 -23 -23 0 30 49 138
77 171 17 21 17 21 0 7 -18 -13 -19 -11 -13 36 18 136 29 204 34 199 3 -2 11
0 19 6 17 15 16 10 -3 -36 -8 -20 -11 -34 -5 -31 5 4 17 27 27 52 14 37 15 47
4 54 -7 4 -10 12 -6 18 3 5 8 29 11 53 3 24 7 45 10 47 2 2 41 7 87 10 70 6
76 7 40 12 l-43 5 44 65 c24 36 42 71 40 77 -3 7 7 29 21 50 14 21 26 41 26
46 0 5 14 28 31 52 54 76 66 188 24 230 -13 14 -31 25 -40 25 -18 0 -18 -1 -4
56 10 37 9 52 -6 89 -9 25 -27 53 -39 62 -12 10 -21 24 -20 31 1 7 0 8 -3 2
-3 -6 -16 -4 -34 6 l-30 15 16 -25 c10 -14 22 -23 27 -20 5 3 2 -9 -8 -27
l-18 -34 -11 39 c-6 22 -18 42 -26 44 -12 3 -12 2 0 -6 9 -7 11 -19 6 -42 l-7
-32 -30 29 c-22 21 -28 34 -24 53 17 79 17 76 7 55 -7 -14 -10 -15 -10 -5 -1
13 -2 13 -11 0 -5 -8 -10 -19 -10 -25 0 -5 5 -3 10 5 8 13 10 13 10 -1 0 -23
-10 -30 -25 -16 -10 10 -10 17 1 40 21 39 11 33 -20 -13 -14 -22 -31 -40 -36
-40 -12 0 -13 27 -2 32 15 6 52 107 51 140 -1 30 -2 31 -8 8 -27 -94 -55 -118
-97 -79 -18 17 -24 33 -24 66 0 33 -4 43 -16 43 -11 0 -15 -6 -11 -20 3 -13
-1 -24 -14 -30 -18 -10 -19 -7 -19 39 0 42 -5 56 -27 79 -16 15 -20 18 -10 6
10 -11 20 -37 23 -56 5 -30 3 -36 -15 -41 -17 -4 -21 -1 -21 19 0 33 -27 96
-47 111 -21 16 -9 43 20 43 13 0 42 -12 63 -26 21 -15 32 -19 24 -10 -17 21
-63 46 -85 46 -9 0 -32 11 -52 24 -19 14 -42 22 -50 19 -13 -5 -13 -7 1 -15 9
-5 20 -7 25 -4 5 3 15 -2 22 -12 11 -14 11 -15 0 -5 -15 13 -44 6 -35 -8 3 -5
14 -9 25 -9 10 0 19 -5 19 -11 0 -6 -7 -9 -15 -5 -8 3 -15 1 -15 -4 0 -6 5
-10 11 -10 14 0 69 -56 69 -69 0 -5 3 -18 7 -28 6 -16 5 -17 -12 -3 -17 14
-18 14 -7 -7 15 -28 15 -33 -2 -33 -9 0 -15 16 -19 47 -7 64 -40 93 -106 93
-41 0 -49 3 -59 25 -26 57 -159 107 -198 74 -25 -21 -151 -13 -192 13 -80 49
-199 60 -297 27z m237 -20 c31 -16 38 -23 27 -30 -10 -6 -5 -10 19 -15 17 -4
32 -10 32 -15 0 -12 -16 -11 -38 0 -9 6 -29 12 -43 15 -39 8 -84 47 -67 57 19
12 24 11 70 -12z m317 -33 c-11 -9 -69 -15 -64 -6 3 6 20 10 37 10 17 0 29 -2
27 -4z m-166 -23 c-7 -2 -19 -2 -25 0 -7 3 -2 5 12 5 14 0 19 -2 13 -5z m188
-3 c10 -6 19 -17 19 -24 0 -10 -10 -9 -40 6 -22 11 -40 22 -40 24 0 8 42 4 61
-6z m-941 -20 c0 -5 -8 -10 -17 -10 -15 0 -16 2 -3 10 19 12 20 12 20 0z m806
-22 c4 -5 -4 -8 -17 -6 -12 1 -24 8 -26 15 -5 14 34 6 43 -9z m359 -34 c8 -4
22 -19 31 -35 14 -27 13 -29 -5 -29 -21 0 -81 45 -81 61 0 10 31 12 55 3z m45
-106 c0 -18 -2 -20 -9 -8 -6 8 -7 18 -5 22 9 14 14 9 14 -14z m115 -89 c-10
-15 -25 -10 -19 6 4 8 10 12 15 9 5 -3 7 -10 4 -15z m-569 -189 c23 -9 25 -13
14 -20 -11 -7 -7 -10 15 -10 17 0 37 -5 45 -11 23 -16 -70 0 -96 16 -11 7 -21
20 -21 29 0 8 3 13 7 11 4 -2 20 -9 36 -15z m31 14 c-3 -3 -12 -4 -19 -1 -8 3
-5 6 6 6 11 1 17 -2 13 -5z m883 -29 c0 -16 -27 -32 -37 -21 -7 7 16 36 28 36
5 0 9 -7 9 -15z m60 -30 c0 -17 -2 -17 -10 -5 -5 8 -10 24 -10 35 0 17 2 17
10 5 5 -8 10 -24 10 -35z m-2279 -62 c-8 -15 -10 -15 -11 -2 0 17 10 32 18 25
2 -3 -1 -13 -7 -23z m2339 -109 c0 -8 -4 -12 -10 -9 -5 3 -10 13 -10 21 0 8 5
12 10 9 6 -3 10 -13 10 -21z m-240 -224 c0 -5 -7 -10 -15 -10 -8 0 -15 5 -15
10 0 6 7 10 15 10 8 0 15 -4 15 -10z m-533 -59 c-10 -4 -57 38 -57 52 0 5 15
-4 33 -20 18 -15 29 -30 24 -32z m613 9 c-8 -5 -16 -8 -17 -6 -2 2 -1 11 3 20
5 13 10 14 18 6 8 -8 7 -13 -4 -20z m90 6 c0 -12 -33 -35 -42 -30 -6 4 -1 12
13 20 27 15 29 16 29 10z m-180 -30 c0 -3 -4 -8 -10 -11 -5 -3 -10 -1 -10 4 0
6 5 11 10 11 6 0 10 -2 10 -4z m110 -16 c0 -23 -22 -27 -39 -7 -13 16 -5 27
21 27 11 0 18 -7 18 -20z m-552 -28 c20 -30 11 -28 -19 4 -13 15 -18 25 -10
22 8 -2 21 -14 29 -26z m-17 -35 c12 -22 12 -22 -10 -3 -11 11 -21 23 -21 28
0 14 19 -1 31 -25z m557 -8 c-22 -41 -83 -99 -102 -99 -6 0 5 15 23 34 28 29
33 40 28 65 -5 25 -3 30 16 34 59 11 60 10 35 -34z m-70 -6 c2 -13 -7 -29 -25
-43 -15 -12 -27 -25 -25 -28 2 -4 -2 -8 -10 -10 -9 -2 -8 0 2 7 9 7 11 11 3
11 -9 0 -8 7 2 28 8 15 16 35 19 45 8 24 30 17 34 -10z m-443 6 c11 -17 -1
-21 -15 -4 -8 9 -8 15 -2 15 6 0 14 -5 17 -11z m-49 -66 c-7 -7 -26 7 -26 19
0 6 6 6 15 -2 9 -7 13 -15 11 -17z m-65 -5 c11 -21 11 -22 -4 -9 -10 7 -17 17
-17 22 0 15 9 10 21 -13z m596 -26 c-15 -14 -27 -21 -27 -14 0 7 -5 10 -12 6
-7 -4 -8 -3 -4 5 4 6 11 9 15 6 5 -2 16 4 26 15 10 11 21 18 24 15 3 -3 -7
-18 -22 -33z m-97 -48 c0 -8 -4 -12 -10 -9 -5 3 -10 10 -10 16 0 5 5 9 10 9 6
0 10 -7 10 -16z m-518 -445 c-12 -31 -26 -7 -17 29 6 23 8 24 16 10 5 -9 5
-26 1 -39z m-35 19 c-3 -8 -6 -5 -6 6 -1 11 2 17 5 13 3 -3 4 -12 1 -19z m44
-81 c-8 -8 -11 -7 -11 4 0 20 13 34 18 19 3 -7 -1 -17 -7 -23z m-7 -32 c-4 -8
-8 -15 -10 -15 -2 0 -4 7 -4 15 0 8 4 15 10 15 5 0 7 -7 4 -15z m276 -85 c0
-5 -5 -10 -11 -10 -5 0 -7 5 -4 10 3 6 8 10 11 10 2 0 4 -4 4 -10z m87 -32
c-3 -7 -5 -2 -5 12 0 14 2 19 5 13 2 -7 2 -19 0 -25z m-537 -21 c0 -12 -8 -27
-18 -34 -18 -10 -18 -9 -3 23 19 40 21 41 21 11z m157 -49 c-3 -8 -6 -5 -6 6
-1 11 2 17 5 13 3 -3 4 -12 1 -19z m-46 -68 c-8 -23 -9 -23 -9 10 0 19 3 44 6
55 6 16 7 15 10 -10 2 -17 -1 -42 -7 -55z m-31 0 c0 -5 -4 -10 -10 -10 -5 0
-10 5 -10 10 0 6 5 10 10 10 6 0 10 -4 10 -10z m410 -15 c-13 -14 -26 -22 -29
-19 -3 3 2 11 11 18 10 7 15 16 11 19 -3 4 2 7 12 7 17 0 16 -3 -5 -25z m-437
-35 c-3 -11 -7 -20 -9 -20 -2 0 -4 9 -4 20 0 11 4 20 9 20 5 0 7 -9 4 -20z
m92 -51 c-4 -58 -14 -94 -16 -53 0 10 -11 -12 -25 -50 -26 -76 -31 -109 -9
-61 7 17 14 24 14 17 1 -21 -19 -53 -30 -47 -5 4 -9 0 -9 -7 0 -9 -3 -9 -10 2
-11 17 -13 1 -4 -24 6 -15 8 -15 20 1 12 17 13 16 7 -4 -6 -27 -21 -30 -30 -6
-9 24 -65 -103 -66 -149 0 -22 -6 -43 -15 -50 -13 -11 -14 -11 -7 1 5 9 4 12
-3 7 -6 -4 -9 -12 -7 -19 2 -7 -9 -27 -24 -45 l-28 -33 5 28 c2 15 9 33 13 39
5 6 6 14 3 17 -4 4 -20 -14 -37 -39 -16 -25 -31 -43 -33 -41 -7 6 11 57 20 56
5 -1 18 15 28 35 10 20 23 34 28 31 6 -4 10 -1 10 6 0 7 2 10 5 7 9 -8 -6 -38
-16 -32 -5 3 -9 3 -9 0 0 -3 4 -7 10 -11 10 -6 50 65 50 90 0 9 11 38 25 66
14 27 23 55 19 61 -5 7 -2 8 6 3 10 -6 12 -4 7 9 -4 10 -3 15 3 11 6 -3 10 0
10 7 0 10 2 10 9 -1 6 -10 11 -4 16 20 8 41 65 219 70 219 2 0 2 -27 0 -61z
m-685 43 c0 -5 -7 -9 -15 -9 -8 0 -12 4 -9 9 3 4 9 8 15 8 5 0 9 -4 9 -8z
m650 -7 c0 -20 -25 -79 -45 -108 -15 -21 -15 -21 -9 12 5 25 4 32 -4 27 -23
-14 -6 28 26 65 20 23 32 24 32 4z m-253 -57 c-3 -7 -5 -2 -5 12 0 14 2 19 5
13 2 -7 2 -19 0 -25z m-837 -30 c11 -14 136 -38 200 -38 69 1 252 24 270 35 5
3 15 -6 21 -22 10 -26 7 -31 -58 -90 -37 -34 -95 -77 -128 -95 -54 -30 -68
-33 -140 -32 -66 0 -90 5 -138 28 -64 32 -83 54 -121 141 -30 65 -29 99 0 46
66 -118 117 -150 242 -150 74 -1 180 26 212 54 8 7 38 24 67 39 51 25 75 46
53 46 -11 0 -23 -6 -84 -41 -22 -13 -47 -24 -55 -24 -24 -3 -104 -26 -123 -36
-29 -15 -95 -10 -166 12 -74 24 -95 36 -89 53 2 6 -2 28 -9 50 -8 21 -11 42
-8 47 5 8 43 -8 54 -23z m840 -12 c0 -3 -4 -8 -10 -11 -5 -3 -10 -1 -10 4 0 6
5 11 10 11 6 0 10 -2 10 -4z m7 -285 c-1 -27 -6 -53 -10 -57 -4 -4 -6 3 -5 17
2 15 -2 23 -9 22 -7 -2 -13 2 -13 9 0 6 -14 -1 -31 -18 l-31 -29 16 33 c15 29
26 37 48 33 4 0 5 6 2 13 -3 8 2 16 13 19 10 3 19 5 20 6 1 0 1 -21 0 -48z
m-27 -32 c0 8 3 12 6 9 6 -7 -35 -91 -60 -123 -19 -25 -20 -12 -1 43 21 60 37
84 47 69 6 -9 8 -8 8 2z m44 -31 c-4 -7 -16 -26 -28 -42 -20 -29 -56 -96 -56
-104 0 -3 7 1 15 8 13 11 14 10 9 -4 -4 -10 -12 -15 -19 -12 -8 3 -16 -2 -19
-11 -4 -9 -9 -13 -12 -10 -4 3 4 20 15 36 12 17 24 40 26 51 2 11 18 38 36 60
32 39 47 52 33 28z m-8 -159 c-9 -13 -16 -18 -16 -12 0 7 5 15 10 18 6 3 10
11 10 16 0 6 -5 7 -12 3 -7 -5 -8 -3 -3 5 5 9 11 9 17 3 7 -7 5 -18 -6 -33z
m-142 -34 c-9 -14 -21 -25 -27 -25 -6 0 0 11 13 25 13 14 25 25 27 25 2 0 -4
-11 -13 -25z m-322 -57 c-7 -7 -12 -8 -12 -2 0 14 12 26 19 19 2 -3 -1 -11 -7
-17z m610 -399 c121 -26 241 -115 286 -212 43 -91 55 -162 49 -282 -6 -131
-21 -203 -92 -475 -81 -306 -139 -640 -133 -765 5 -93 24 -137 68 -155 66 -27
172 16 204 85 20 42 20 87 0 194 -9 47 -14 110 -12 140 4 47 10 59 37 81 39
33 93 50 159 50 67 0 98 -13 117 -49 21 -41 19 -109 -6 -227 -21 -102 -20
-145 7 -196 25 -49 114 -78 128 -42 3 9 1 43 -6 75 -6 32 -9 62 -5 66 13 12
84 5 117 -12 l32 -16 -7 -84 -7 -83 36 -12 c19 -6 46 -10 58 -8 l23 3 6 265
c5 242 8 273 32 362 80 301 259 513 543 645 112 51 210 73 328 73 177 0 310
-54 431 -174 149 -147 230 -335 242 -562 14 -269 -72 -504 -255 -695 -201
-211 -465 -316 -774 -307 -70 1 -128 0 -128 -3 0 -4 20 -56 44 -115 24 -60 50
-128 56 -151 7 -24 18 -43 23 -43 25 0 203 68 306 116 180 86 263 147 445 329
183 184 238 225 302 225 89 0 119 -86 111 -320 -6 -165 -26 -251 -83 -361 -44
-83 -102 -143 -179 -182 -111 -56 -446 -156 -660 -198 l-60 -11 75 -22 c193
-56 334 -189 388 -366 40 -132 37 -303 -9 -437 -96 -286 -359 -474 -759 -543
l-65 -11 -39 -90 c-143 -331 -407 -583 -721 -688 -153 -51 -249 -65 -455 -65
-213 -1 -224 3 -273 91 -61 113 -177 460 -177 530 l0 25 208 -8 c404 -17 589
-5 724 45 63 24 136 76 162 116 l17 26 -38 -8 c-21 -4 -90 -8 -153 -7 -124 1
-197 20 -306 81 -128 71 -232 218 -275 392 -28 113 -23 276 11 366 67 176 222
299 450 356 124 32 297 24 430 -19 211 -69 380 -231 450 -432 13 -36 26 -69
30 -73 12 -14 146 23 192 52 53 34 78 81 78 148 0 78 -43 154 -156 275 -97
104 -99 105 -119 88 -67 -61 -203 -79 -285 -37 -70 35 -103 85 -108 161 -8
117 50 200 209 302 41 25 75 48 77 49 2 2 -18 44 -43 95 -59 118 -99 220 -131
340 -15 52 -27 96 -29 98 -1 1 -36 -6 -76 -18 -40 -11 -96 -20 -124 -20 -62 0
-139 34 -188 84 l-36 36 -78 -79 c-43 -43 -101 -92 -130 -108 l-52 -29 50 -50
c61 -59 79 -99 79 -171 0 -118 -87 -203 -207 -203 -166 1 -290 194 -215 336
l21 42 -43 6 c-56 9 -151 54 -204 99 -142 120 -214 280 -283 637 -22 113 -51
252 -64 310 -13 58 -34 175 -45 260 -12 85 -26 173 -33 194 -7 24 -11 123 -11
255 0 171 3 232 17 291 32 136 92 237 169 286 77 49 201 66 310 43z m-1532
-425 c178 -31 331 -93 491 -199 328 -219 491 -504 515 -901 12 -203 -26 -334
-131 -443 -34 -36 -83 -73 -123 -94 -220 -114 -602 -170 -888 -131 l-41 6 -5
-79 c-6 -81 -31 -168 -76 -263 -37 -80 -212 -251 -315 -309 -147 -83 -340
-135 -548 -148 -121 -7 -188 7 -231 51 -53 52 -178 347 -178 419 0 24 4 25 68
31 37 3 164 5 282 5 315 -1 432 26 525 121 l40 41 -30 -7 c-53 -14 -216 -8
-285 10 -211 56 -348 210 -358 401 -8 159 36 273 147 378 245 230 628 219 868
-25 60 -62 115 -149 132 -211 l13 -44 46 3 c26 2 117 5 202 8 139 3 164 7 240
33 48 16 118 50 159 77 95 64 116 104 115 223 0 76 -4 89 -42 167 -43 87 -76
123 -195 214 -59 46 -176 95 -266 112 -68 13 -207 13 -286 1 -33 -6 -109 -27
-170 -47 -85 -29 -118 -36 -146 -30 -57 10 -123 75 -166 164 -33 65 -38 87
-41 157 -6 131 38 208 151 267 110 57 336 75 527 42z m1190 -1702 c41 -68 94
-143 117 -165 111 -106 151 -139 194 -160 l46 -22 11 -82 c6 -48 21 -102 36
-131 31 -62 112 -135 174 -158 27 -10 64 -36 87 -61 102 -107 251 -120 341
-29 64 64 81 164 40 244 -8 17 -10 35 -5 47 4 11 8 47 9 80 1 69 8 81 91 148
l56 45 64 -44 c47 -33 80 -47 126 -55 l62 -11 31 -85 c16 -47 34 -93 40 -102
7 -14 -4 -28 -60 -74 -39 -31 -85 -78 -105 -104 -43 -59 -75 -157 -75 -230 l0
-56 -47 7 c-223 31 -391 8 -568 -78 -141 -68 -231 -154 -300 -288 l-42 -80
-17 64 c-23 82 -59 144 -96 163 -45 23 -170 38 -338 39 -131 1 -151 3 -145 16
4 8 8 60 9 115 1 55 4 114 8 130 9 40 -9 127 -36 183 -34 66 -117 145 -192
182 -61 30 -71 32 -143 28 -53 -3 -92 -12 -120 -26 l-42 -22 -12 39 c-16 55
-60 105 -116 133 -42 20 -63 23 -162 23 l-113 0 5 48 c2 26 6 50 9 53 3 2 68
9 144 14 142 10 190 17 362 51 72 14 278 90 351 129 61 33 111 81 186 178 30
40 42 49 50 39 6 -6 44 -68 85 -135z m-1013 -458 c99 -27 152 -100 153 -207 1
-240 -337 -309 -440 -90 -42 89 -18 202 56 261 19 15 34 33 34 40 0 6 5 12 11
12 5 0 8 -4 5 -9 -3 -5 13 -3 37 4 44 14 58 13 144 -11z m477 -166 c82 -25
156 -127 156 -214 0 -81 -60 -171 -134 -205 -91 -41 -224 -10 -281 65 -138
182 36 420 259 354z m-727 -411 c-13 -18 -42 -49 -63 -71 l-39 -38 41 21 c46
23 54 21 166 -23 73 -30 78 -38 78 -122 0 -114 -52 -205 -150 -258 -41 -23
-60 -27 -93 -23 l-40 6 49 -29 c45 -25 51 -33 63 -81 8 -30 23 -74 33 -98 l19
-45 -58 -85 c-32 -46 -66 -89 -75 -95 -12 -8 -35 -6 -82 7 -35 9 -76 17 -90
17 -24 0 -44 16 -80 65 -13 18 -13 13 0 -40 7 -33 14 -75 14 -94 l0 -35 -31
30 c-49 45 -95 123 -118 198 -23 76 -40 236 -24 236 13 0 69 -79 93 -132 19
-42 20 -42 20 -12 0 55 30 121 71 158 46 42 72 50 142 44 50 -5 51 -5 22 8
-16 7 -47 16 -67 20 -44 8 -58 37 -58 123 0 70 27 131 78 178 l37 35 -45 -28
c-58 -36 -191 -96 -198 -90 -7 8 81 112 131 156 23 20 62 50 87 65 59 37 184
86 188 74 2 -5 -7 -24 -21 -42z m496 -2 c29 -13 84 -51 122 -83 71 -60 164
-162 147 -162 -21 0 -120 33 -149 51 l-33 18 24 -47 c29 -57 41 -126 32 -186
-6 -39 -11 -45 -48 -62 l-42 -19 43 -7 c86 -15 152 -95 155 -190 l1 -48 45 90
c24 49 47 90 51 90 9 0 19 -55 19 -107 0 -59 -38 -170 -90 -263 -24 -41 -44
-77 -47 -80 -13 -14 -23 34 -21 97 l3 71 -19 -27 c-15 -21 -39 -32 -119 -54
-116 -32 -127 -29 -174 46 -14 23 -35 55 -46 71 -18 26 -19 34 -9 70 7 23 19
68 28 101 19 70 26 80 73 104 l35 19 -44 7 c-62 10 -122 37 -180 82 l-49 38
-1 121 0 122 34 16 c83 39 173 43 250 11 11 -5 -7 16 -40 46 -33 30 -68 65
-79 78 l-18 24 47 -6 c25 -4 70 -18 99 -32z m762 -270 c72 -8 135 -15 141 -15
16 0 50 -83 65 -160 31 -154 4 -579 -47 -756 -29 -101 -87 -223 -140 -295 -99
-136 -273 -254 -458 -314 -153 -48 -263 -66 -461 -72 l-170 -6 -40 44 c-97
106 -192 268 -249 428 -21 59 -24 76 -14 83 21 13 69 9 134 -11 185 -58 406
-24 672 105 155 75 206 117 250 208 89 183 110 433 51 608 -23 68 -25 121 -5
137 40 33 94 36 271 16z m1924 -69 c12 -18 21 -50 21 -70 0 -29 -5 -39 -25
-48 -14 -6 -27 -9 -28 -7 -10 12 -67 110 -67 114 0 3 66 42 77 45 1 0 11 -15
22 -34z m-2859 -458 c69 -70 94 -159 65 -233 -19 -51 -58 -85 -125 -108 l-45
-15 44 -1 c61 -1 171 -21 171 -31 0 -19 -118 -52 -201 -57 -81 -5 -208 12
-271 36 -22 9 -21 10 17 26 21 9 69 20 105 24 l65 7 -42 8 c-48 9 -91 50 -125
122 l-21 43 24 46 c61 118 130 164 240 165 62 0 69 -2 99 -32z m1337 -260 c48
-81 136 -172 219 -227 l74 -50 -37 -7 c-32 -6 -321 10 -328 18 -3 3 9 141 21
266 3 28 9 52 12 52 4 0 21 -24 39 -52z m-1387 -238 c0 -5 -4 -10 -9 -10 -6 0
-13 5 -16 10 -3 6 1 10 9 10 9 0 16 -4 16 -10z"/>
<path d="M4348 8813 c6 -2 18 -2 25 0 6 3 1 5 -13 5 -14 0 -19 -2 -12 -5z"/>
<path d="M4406 6273 c-6 -14 -5 -15 5 -6 7 7 10 15 7 18 -3 3 -9 -2 -12 -12z"/>
<path d="M6320 4341 c-63 -24 -115 -61 -182 -127 -97 -97 -156 -231 -165 -380
l-6 -91 39 -6 c96 -15 301 -19 364 -7 86 15 175 64 212 114 81 112 77 322 -8
433 -33 43 -115 83 -169 82 -22 0 -60 -8 -85 -18z m194 -253 c3 -13 6 -44 6
-70 0 -39 -6 -54 -31 -83 -17 -19 -34 -35 -38 -35 -4 0 -16 38 -28 85 l-20 86
20 14 c35 24 57 19 57 -12 0 -20 3 -24 9 -14 5 7 6 22 4 32 -3 10 -1 19 5 19
5 0 12 -10 16 -22z m-119 -65 c4 -21 11 -60 16 -87 5 -27 6 -53 2 -56 -20 -18
-82 -30 -150 -30 l-74 0 41 59 c23 32 53 69 66 82 25 24 26 24 41 4 54 -74 54
-74 32 -18 -18 43 -19 56 -9 68 20 24 29 18 35 -22z"/>
<path d="M5260 1961 c-72 -22 -119 -63 -145 -123 -32 -79 -13 -152 55 -211 67
-57 138 -80 250 -81 158 -2 218 42 207 149 -17 161 -222 310 -367 266z m241
-252 c18 -34 -3 -44 -83 -42 -88 2 -104 14 -52 42 54 28 120 28 135 0z"/>
<path d="M2305 3910 c-113 -17 -186 -112 -156 -203 37 -111 262 -173 391 -107
21 11 40 26 44 35 25 66 -23 157 -120 234 -48 37 -98 50 -159 41z"/>
<path d="M5345 8359 c-4 -6 -5 -12 -2 -15 2 -3 7 2 10 11 7 17 1 20 -8 4z"/>
<path d="M3087 7920 c-16 -5 -43 -19 -60 -32 -18 -13 -63 -43 -102 -66 -38
-24 -89 -57 -111 -75 -208 -162 -279 -205 -339 -208 l-50 -2 55 -6 c81 -9 84
-12 78 -95 -4 -53 -1 -86 13 -131 15 -47 18 -51 13 -20 -3 22 -8 80 -10 129
-3 61 -9 95 -19 106 -14 16 -13 19 8 33 13 8 40 22 61 31 20 8 60 37 89 63 81
75 166 137 234 171 34 18 83 45 109 62 56 35 96 38 124 10 25 -25 26 -72 1
-125 -23 -52 -113 -145 -140 -145 -11 0 -23 -5 -26 -10 -4 -6 -25 -20 -47 -31
-23 -12 -62 -43 -87 -69 -59 -61 -165 -146 -213 -171 -21 -11 -38 -21 -38 -24
0 -8 75 27 120 55 25 16 75 62 112 103 55 61 76 77 125 95 32 12 63 22 68 22
6 1 17 -22 25 -52 9 -29 21 -53 27 -53 6 0 25 -10 42 -23 34 -25 67 -115 56
-154 -5 -18 -4 -20 4 -8 6 8 11 24 11 36 0 20 2 20 58 -7 68 -34 103 -36 157
-9 22 11 31 17 20 13 -37 -12 -113 -15 -132 -4 -14 8 -1 11 57 12 41 1 87 1
101 0 19 -1 36 10 67 45 57 63 55 82 -16 154 -49 48 -70 62 -126 79 -74 23
-186 28 -232 11 -49 -19 -59 -4 -26 38 34 43 56 86 66 125 8 32 -8 100 -27
115 -19 15 -69 21 -100 12z m213 -389 c0 -5 -9 -12 -19 -16 -11 -3 -33 -21
-50 -40 l-30 -35 -26 26 c-31 31 -32 52 -2 64 29 12 127 12 127 1z m156 -12
c45 -8 69 -18 86 -36 l23 -26 -34 18 c-39 20 -133 31 -184 21 -19 -4 -51 -18
-71 -31 -47 -32 -56 -32 -25 1 58 63 93 73 205 53z m-112 -89 c-4 -20 -1 -39
11 -56 l17 -27 -48 8 c-55 8 -74 19 -74 45 0 24 46 60 76 60 21 0 23 -4 18
-30z m192 -16 c-4 -9 -9 -15 -11 -12 -3 3 -3 13 1 22 4 9 9 15 11 12 3 -3 3
-13 -1 -22z m-16 -48 c0 -3 -4 -8 -10 -11 -5 -3 -10 -1 -10 4 0 6 5 11 10 11
6 0 10 -2 10 -4z"/>
<path d="M4680 7837 c0 -8 9 -22 20 -32 19 -17 19 -17 7 14 -12 32 -27 42 -27
18z"/>
<path d="M4180 7702 c0 -4 -66 -14 -147 -20 -82 -7 -171 -19 -200 -27 -60 -16
-117 -44 -90 -45 9 0 17 -7 17 -15 0 -8 12 -21 28 -29 24 -13 42 -11 172 15
167 35 278 34 358 -1 54 -24 50 -24 48 -1 -2 33 -75 103 -124 117 -52 16 -62
17 -62 6z"/>
<path d="M5489 7674 c-23 -25 -27 -33 -13 -26 18 9 61 62 51 62 -2 0 -19 -16
-38 -36z"/>
<path d="M2955 7641 c-3 -5 -2 -12 3 -15 5 -3 9 1 9 9 0 17 -3 19 -12 6z"/>
<path d="M4025 7565 c-5 -2 -26 -6 -46 -9 -23 -4 -49 -20 -73 -43 -42 -42 -50
-70 -8 -30 39 38 88 55 173 61 90 6 132 -10 197 -74 45 -45 50 -45 27 -1 -25
50 -69 78 -138 90 -62 11 -111 13 -132 6z"/>
<path d="M5330 7550 c6 -11 13 -20 16 -20 2 0 0 9 -6 20 -6 11 -13 20 -16 20
-2 0 0 -9 6 -20z"/>
<path d="M5365 7545 c5 -11 10 -36 11 -55 l4 -35 -14 35 -14 35 2 -41 c1 -29
5 -40 14 -37 7 3 12 -3 12 -14 0 -12 8 -19 22 -20 18 -2 19 0 8 7 -9 6 -15 25
-15 52 0 26 -8 53 -19 68 -14 19 -16 20 -11 5z"/>
<path d="M2328 7532 c-191 -121 -249 -151 -309 -163 -35 -6 -73 -17 -84 -22
-11 -6 -51 -10 -89 -8 l-69 2 -46 -49 c-26 -27 -59 -76 -75 -108 -23 -45 -66
-95 -181 -209 -165 -163 -191 -195 -235 -279 -32 -63 -29 -99 11 -150 27 -34
35 -27 15 13 -18 35 -21 88 -5 127 15 40 96 137 258 308 101 107 144 159 151
185 28 104 148 173 236 136 28 -11 34 -12 25 -2 -13 17 -5 27 24 27 73 0 161
40 328 149 29 19 70 40 92 47 37 12 38 13 10 13 -16 0 -42 -8 -57 -17z"/>
<path d="M2982 7504 c-26 -55 -153 -193 -226 -243 -41 -28 -89 -70 -107 -94
l-33 -42 49 45 c28 25 80 67 117 94 37 26 90 75 118 108 53 64 106 146 98 153
-3 3 -10 -7 -16 -21z"/>
<path d="M3995 7509 c-31 -9 -115 -74 -115 -89 0 -4 19 -18 43 -29 82 -40 253
-32 325 15 12 8 27 12 32 9 24 -15 7 16 -25 44 -59 51 -177 74 -260 50z m21
-35 c-7 -19 18 -69 41 -83 16 -9 16 -10 -4 -11 -12 0 -44 5 -72 12 -59 13 -64
29 -26 71 28 30 71 38 61 11z m224 -45 c0 -10 -33 -29 -50 -29 -6 0 -3 10 7
24 17 22 43 25 43 5z"/>
<path d="M2650 7441 c0 -6 4 -13 10 -16 6 -3 7 1 4 9 -7 18 -14 21 -14 7z"/>
<path d="M3781 7354 c-1 -51 3 -76 15 -90 8 -10 12 -13 8 -5 -3 7 -10 48 -14
90 l-7 76 -2 -71z"/>
<path d="M4946 7380 c4 -19 13 -44 20 -55 19 -26 18 -19 -6 40 -17 42 -19 44
-14 15z"/>
<path d="M5022 7360 c27 -40 34 -45 36 -28 2 12 -8 32 -24 49 -42 44 -48 35
-12 -21z"/>
<path d="M3554 7349 c-15 -25 -22 -79 -10 -86 6 -3 8 -3 4 1 -3 4 -1 28 7 52
13 43 13 55 -1 33z"/>
<path d="M3905 7340 c11 -18 76 -40 114 -39 l36 1 -44 9 c-24 5 -54 15 -67 24
-27 17 -48 20 -39 5z"/>
<path d="M4108 7343 c6 -2 18 -2 25 0 6 3 1 5 -13 5 -14 0 -19 -2 -12 -5z"/>
<path d="M4190 7335 c-19 -7 -28 -14 -20 -14 8 0 29 6 45 14 39 17 21 18 -25
0z"/>
<path d="M5156 7302 c-4 -18 -11 -31 -14 -28 -3 4 -23 -10 -43 -30 -23 -22
-44 -34 -52 -31 -9 3 -28 2 -44 -2 -27 -8 -27 -8 15 -15 23 -4 42 -11 42 -15
0 -5 -11 -25 -25 -45 -22 -32 -22 -35 -5 -26 57 31 147 165 138 207 -3 12 -7
7 -12 -15z"/>
<path d="M4128 7313 c7 -3 16 -2 19 1 4 3 -2 6 -13 5 -11 0 -14 -3 -6 -6z"/>
<path d="M2256 7275 c-50 -39 -62 -58 -18 -30 78 51 95 65 81 65 -9 0 -37 -16
-63 -35z"/>
<path d="M1955 7270 c10 -11 20 -20 23 -20 3 0 -3 9 -13 20 -10 11 -20 20 -23
20 -3 0 3 -9 13 -20z"/>
<path d="M3390 7234 c-25 -13 -34 -22 -20 -18 25 7 70 33 70 40 0 6 -1 5 -50
-22z"/>
<path d="M2005 7235 c11 -9 45 -30 76 -46 65 -35 132 -117 150 -182 6 -24 8
-74 5 -121 -4 -53 -3 -74 3 -61 15 32 12 147 -5 205 -20 67 -92 141 -184 188
-36 19 -56 26 -45 17z"/>
<path d="M2391 7195 l31 -55 -6 -123 c-4 -67 -3 -127 1 -134 5 -6 8 20 8 60 0
40 2 95 4 122 6 80 3 99 -26 143 -40 61 -49 51 -12 -13z"/>
<path d="M2593 7195 c0 -27 2 -38 4 -22 2 15 2 37 0 50 -2 12 -4 0 -4 -28z"/>
<path d="M2279 7195 c-25 -13 -55 -63 -44 -73 3 -3 5 1 5 8 0 7 16 28 36 46
40 38 40 39 3 19z"/>
<path d="M5205 7097 c-11 -29 -21 -56 -23 -62 -2 -5 6 1 17 15 19 23 38 86 29
95 -2 2 -12 -19 -23 -48z"/>
<path d="M2352 7089 c-20 -22 -40 -50 -44 -62 -7 -21 -7 -21 10 1 9 13 32 41
51 63 44 52 30 50 -17 -2z"/>
<path d="M1800 7096 c0 -3 15 -15 33 -27 l32 -23 -24 27 c-22 24 -41 35 -41
23z"/>
<path d="M3480 7050 c-12 -23 -17 -39 -11 -35 15 8 44 65 37 72 -2 3 -14 -14
-26 -37z"/>
<path d="M1906 7051 c13 -22 37 -42 74 -60 75 -36 97 -77 106 -196 3 -50 8
-92 10 -94 9 -9 3 107 -7 168 -10 53 -19 73 -45 99 -17 17 -46 35 -63 38 -19
4 -44 21 -63 43 l-30 36 18 -34z"/>
<path d="M2119 7033 c-13 -16 -12 -17 4 -4 9 7 17 15 17 17 0 8 -8 3 -21 -13z"/>
<path d="M3901 7005 c31 -17 59 -57 59 -83 0 -25 -28 -49 -65 -55 -27 -4 -26
-4 8 -6 45 -1 77 26 77 68 0 43 -9 60 -41 76 -38 20 -74 20 -38 0z"/>
<path d="M1795 6990 c19 -8 83 -14 74 -6 -2 2 -24 6 -49 9 -30 4 -38 3 -25 -3z"/>
<path d="M2492 6980 c-25 -11 -45 -53 -39 -84 2 -15 5 -11 11 15 6 27 17 41
44 57 37 22 27 29 -16 12z"/>
<path d="M2560 6966 c0 -2 7 -9 15 -16 13 -11 14 -10 9 4 -5 14 -24 23 -24 12z"/>
<path d="M4844 6900 c-13 -28 -27 -130 -19 -130 13 0 36 79 33 115 -3 38 -4
39 -14 15z"/>
<path d="M2591 6894 c0 -11 3 -14 6 -6 3 7 2 16 -1 19 -3 4 -6 -2 -5 -13z"/>
<path d="M3728 6892 c-48 -29 -35 -39 37 -31 80 10 95 17 70 36 -26 18 -74 16
-107 -5z"/>
<path d="M2557 6844 c-15 -13 -24 -24 -19 -24 14 0 58 37 52 43 -3 3 -18 -6
-33 -19z"/>
<path d="M2380 6828 c-11 -18 -20 -46 -19 -63 0 -28 1 -28 13 10 7 22 18 50
25 63 18 34 3 26 -19 -10z"/>
<path d="M2498 6813 c7 -3 16 -2 19 1 4 3 -2 6 -13 5 -11 0 -14 -3 -6 -6z"/>
<path d="M2242 6720 c0 -25 3 -54 8 -65 8 -18 9 -18 9 5 0 14 -4 43 -8 65 l-9
40 0 -45z"/>
<path d="M1751 6673 l-22 -38 26 28 c14 15 25 32 25 38 0 17 -8 9 -29 -28z"/>
<path d="M2730 6701 c-45 -14 -130 -61 -130 -71 0 -6 -3 -9 -7 -8 -5 2 -33
-10 -63 -26 -49 -25 -51 -27 -20 -22 19 4 45 16 59 29 14 12 20 14 12 5 -7 -9
-11 -27 -9 -40 3 -20 7 -16 26 23 17 35 35 53 70 72 107 57 182 38 182 -47 0
-23 -7 -51 -15 -62 -8 -10 -14 -23 -15 -29 0 -5 9 4 20 20 25 38 26 105 3 134
-20 24 -74 35 -113 22z"/>
<path d="M2361 6674 c-1 -17 6 -37 14 -44 15 -13 15 -9 -8 60 -3 8 -6 1 -6
-16z"/>
<path d="M2081 6642 c-1 -48 19 -96 46 -106 13 -6 12 -1 -6 18 -15 15 -26 44
-31 78 l-8 53 -1 -43z"/>
<path d="M2147 6663 c-14 -14 -6 -62 14 -84 l21 -24 -16 25 c-19 29 -21 76 -3
83 6 3 7 6 1 6 -6 1 -14 -2 -17 -6z"/>
<path d="M1905 6589 c-78 -96 -92 -119 -33 -56 46 49 96 117 86 117 -2 0 -25
-28 -53 -61z"/>
<path d="M1179 6593 c-54 -87 -152 -199 -313 -358 -138 -136 -186 -191 -241
-275 -37 -58 -121 -179 -185 -270 -137 -193 -152 -220 -179 -328 -39 -150 -25
-201 74 -271 41 -29 46 -31 30 -11 -11 14 -31 35 -44 48 -41 37 -61 74 -55
102 4 22 3 23 -6 5 -8 -16 -9 -14 -5 15 20 139 39 179 207 433 68 103 143 219
168 257 30 47 110 136 237 262 106 106 190 194 188 197 -2 4 32 53 76 111 71
95 87 120 75 120 -2 0 -15 -17 -27 -37z m-349 -406 c0 -2 -15 -16 -32 -33
l-33 -29 29 33 c28 30 36 37 36 29z"/>
<path d="M2401 6614 c0 -11 3 -14 6 -6 3 7 2 16 -1 19 -3 4 -6 -2 -5 -13z"/>
<path d="M2631 6584 c0 -11 3 -14 6 -6 3 7 2 16 -1 19 -3 4 -6 -2 -5 -13z"/>
<path d="M4372 6530 c0 -14 2 -19 5 -12 2 6 2 18 0 25 -3 6 -5 1 -5 -13z"/>
<path d="M2163 6523 c9 -2 23 -2 30 0 6 3 -1 5 -18 5 -16 0 -22 -2 -12 -5z"/>
<path d="M2795 6510 c-11 -18 -68 -42 -157 -66 -48 -13 -107 -33 -131 -45 -23
-13 -71 -33 -107 -45 -36 -13 -58 -24 -50 -24 32 0 164 42 219 69 31 16 77 34
101 41 55 15 112 43 129 64 8 9 11 16 8 16 -3 0 -9 -5 -12 -10z"/>
<path d="M1173 6475 c0 -22 2 -30 4 -17 2 12 2 30 0 40 -3 9 -5 -1 -4 -23z"/>
<path d="M4361 6484 c0 -11 3 -14 6 -6 3 7 2 16 -1 19 -3 4 -6 -2 -5 -13z"/>
<path d="M4284 6463 c9 -18 21 -33 27 -33 13 0 -4 32 -27 51 -16 13 -16 12 0
-18z"/>
<path d="M1527 6473 c18 -2 50 -2 70 0 21 2 7 4 -32 4 -38 0 -55 -2 -38 -4z"/>
<path d="M4760 6440 c-6 -11 -8 -20 -6 -20 3 0 10 9 16 20 6 11 8 20 6 20 -3
0 -10 -9 -16 -20z"/>
<path d="M1319 6373 c-13 -16 -12 -17 4 -4 9 7 17 15 17 17 0 8 -8 3 -21 -13z"/>
<path d="M1179 6229 c-91 -89 -108 -108 -64 -75 50 38 205 196 193 196 -2 0
-60 -54 -129 -121z"/>
<path d="M1788 6343 c12 -2 30 -2 40 0 9 3 -1 5 -23 4 -22 0 -30 -2 -17 -4z"/>
<path d="M1900 6319 c50 -19 68 -20 200 -15 80 4 163 10 185 15 56 12 29 12
-110 1 -110 -9 -169 -6 -300 15 -17 3 -6 -4 25 -16z"/>
<path d="M3650 6315 c26 -32 50 -55 50 -47 0 4 4 1 9 -7 12 -19 41 -23 41 -5
0 8 5 14 10 14 6 0 10 -6 10 -12 0 -10 2 -10 8 -1 9 14 27 5 34 -17 4 -11 8
-9 16 10 9 22 11 22 12 5 l1 -20 9 20 c5 11 9 16 9 10 1 -5 6 -3 11 5 8 12 10
12 10 -5 0 -17 2 -17 10 -5 17 26 12 39 -12 33 -49 -11 -103 -8 -116 7 -9 10
-11 11 -6 1 6 -11 -1 -12 -32 -7 -21 4 -50 15 -64 23 -24 16 -24 16 -10 -2z"/>
<path d="M1672 6297 c-29 -15 -58 -45 -88 -87 -25 -36 -70 -91 -102 -122 -31
-32 -52 -58 -47 -58 4 0 0 -10 -11 -22 -56 -63 -79 -138 -88 -278 -4 -52 -9
-111 -11 -130 -5 -35 -5 -35 4 -5 6 17 14 86 20 155 14 173 42 227 183 355 18
17 51 61 73 99 31 53 49 73 85 91 25 13 40 24 35 25 -6 0 -30 -10 -53 -23z"/>
<path d="M5555 6301 c17 -10 41 -31 55 -46 14 -15 48 -42 75 -59 70 -45 75
-48 75 -43 0 3 -23 20 -51 37 -27 18 -62 48 -76 67 -26 34 -70 63 -95 63 -7 0
1 -8 17 -19z"/>
<path d="M3911 6284 c0 -11 3 -14 6 -6 3 7 2 16 -1 19 -3 4 -6 -2 -5 -13z"/>
<path d="M3210 6223 c-86 -10 -285 -55 -366 -84 -127 -45 -246 -128 -283 -198
-6 -11 11 2 38 29 100 100 369 203 636 244 81 13 63 19 -25 9z"/>
<path d="M5585 6155 c-8 -65 -60 -215 -106 -306 -15 -31 -64 -100 -109 -153
-44 -54 -80 -100 -80 -103 0 -4 17 13 37 38 21 24 74 82 118 129 66 70 84 97
102 150 23 66 58 272 50 293 -2 7 -8 -15 -12 -48z"/>
<path d="M5770 6145 c0 -4 89 -49 198 -102 108 -53 242 -123 298 -155 123 -71
248 -123 334 -137 36 -6 76 -14 90 -16 58 -12 -11 15 -112 43 -78 22 -142 50
-244 105 -77 42 -212 108 -302 146 -89 39 -185 82 -212 96 -28 14 -50 23 -50
20z"/>
<path d="M2493 6041 c-29 -27 -37 -102 -19 -166 l14 -50 1 91 c1 107 11 124
72 134 l44 7 -46 2 c-32 1 -51 -5 -66 -18z"/>
<path d="M2363 5995 c-29 -21 -47 -87 -39 -150 6 -43 54 -180 62 -173 1 2 -8
48 -22 103 -31 131 -31 166 2 204 29 35 28 38 -3 16z"/>
<path d="M4070 5885 c-14 -8 -20 -14 -15 -14 6 0 21 6 35 14 14 8 21 14 15 14
-5 0 -21 -6 -35 -14z"/>
<path d="M1748 5823 c7 -3 16 -2 19 1 4 3 -2 6 -13 5 -11 0 -14 -3 -6 -6z"/>
<path d="M1698 5813 c7 -3 16 -2 19 1 4 3 -2 6 -13 5 -11 0 -14 -3 -6 -6z"/>
<path d="M1505 5800 l-80 -6 80 -1 c44 -1 103 2 130 7 l50 7 -50 0 c-27 0 -86
-4 -130 -7z"/>
<path d="M3902 5590 c0 -14 2 -19 5 -12 2 6 2 18 0 25 -3 6 -5 1 -5 -13z"/>
<path d="M6559 5563 l-24 -28 28 24 c15 14 27 26 27 28 0 8 -8 1 -31 -24z"/>
<path d="M5270 5560 c-6 -11 -8 -20 -6 -20 3 0 10 9 16 20 6 11 8 20 6 20 -3
0 -10 -9 -16 -20z"/>
<path d="M7030 5555 c13 -14 26 -25 28 -25 3 0 -5 11 -18 25 -13 14 -26 25
-28 25 -3 0 5 -11 18 -25z"/>
<path d="M1286 5485 c-9 -26 -7 -32 5 -12 6 10 9 21 6 23 -2 3 -7 -2 -11 -11z"/>
<path d="M3411 5424 c0 -11 3 -14 6 -6 3 7 2 16 -1 19 -3 4 -6 -2 -5 -13z"/>
<path d="M1220 5350 c-6 -11 -8 -20 -6 -20 3 0 10 9 16 20 6 11 8 20 6 20 -3
0 -10 -9 -16 -20z"/>
<path d="M425 5034 c11 -8 63 -40 115 -69 70 -40 117 -59 173 -71 43 -9 81
-13 84 -10 4 3 -1 6 -11 6 -21 0 -185 64 -251 98 -84 44 -133 65 -110 46z"/>
<path d="M850 4870 c34 -11 60 -11 35 0 -11 5 -29 8 -40 8 -16 0 -15 -2 5 -8z"/>
<path d="M3221 4214 c0 -11 3 -14 6 -6 3 7 2 16 -1 19 -3 4 -6 -2 -5 -13z"/>
<path d="M3232 4170 c0 -14 2 -19 5 -12 2 6 2 18 0 25 -3 6 -5 1 -5 -13z"/>
<path d="M7689 4023 c-13 -16 -12 -17 4 -4 16 13 21 21 13 21 -2 0 -10 -8 -17
-17z"/>
<path d="M8011 3835 c0 -5 8 -26 19 -45 11 -19 19 -30 19 -25 0 6 -8 26 -19
45 -11 19 -19 31 -19 25z"/>
<path d="M8054 3740 c9 -29 234 -577 303 -740 39 -91 74 -174 77 -184 5 -14
10 -16 17 -9 16 16 -10 89 -93 266 -38 82 -116 256 -173 387 -90 207 -147 329
-131 280z"/>
<path d="M7626 2364 c-73 -37 -102 -60 -126 -100 -12 -19 -21 -37 -19 -39 2
-2 31 21 64 51 33 30 80 68 104 85 55 36 43 37 -23 3z"/>
</g>
</svg>
